<svg version="1.2" xmlns="http://www.w3.org/2000/svg" viewBox="0 0 2000 2000" width="2000" height="2000">
	<title>avatar-svg</title>
	<style>
		.s0 { fill: #4d4964 } 
		.s1 { fill: #e1b399 } 
		.s2 { fill: #010001 } 
		.s3 { fill: #010101 } 
		.s4 { fill: #010102 } 
		.s5 { fill: #271e1a } 
		.s6 { fill: #4d3932 } 
		.s7 { fill: #33180d } 
		.s8 { fill: #7b695f } 
	</style>
	<g id="Layer">
		<path id="Layer" class="s0" d="m1441 2000q-74.4 0-148.9 0c-1.8-1.3-3.9-2.1-5.5-3.8-9-9.9-19.7-17.9-28.9-27.5-20.5-21.6-43.4-40.5-66.4-59.4-33-27.1-60.5-58.3-77.1-98.5-9.6-23-25.5-41.8-46.8-55.6-7.6-4.8-14.8-10.3-21.8-16-24.1-19.9-52.7-30.1-82.5-37.2-11.8-2.8-23.9-1.8-31.6 10.6-2.5 3.9-6.5 4.4-10.8 3.1-5.7-1.6-11.1-3.8-16.7-5.6-24.4-8-49-15.5-73.4-23.5-15.7-5.1-29.5-14.5-44.3-21.6-21.5-10.2-42.9-21.1-66.4-26.4-6.4-1.5-12.9-1.5-19.3 1-10.2 4.1-15.6 14.2-13.5 25.1 2.1 10.4 7.5 18.7 15.8 25.2 12.5 9.9 25.8 18.2 40.9 23.5 23.5 8.1 45.6 19.4 68.1 29.7 12.7 5.8 26 10.1 39 15.3 2.4 1 5.7 1.5 5.9 4.8 0.1 3-3 3.7-5 5-6.4 4-9.4 10-9.9 17.4-1.3 18.9 6 33.7 21.1 45 2.9 2.3 8.3 3.9 7.9 7.6-0.6 3.9-6.4 3-9.8 4.4-10.9 4.3-16 12.9-14.1 24.6 1.9 11.9 7.4 22.1 15.2 31.2 0.5 0.7 1.2 1.3 1.8 1.9 2.7 3.3 6.7 6.2 7.3 10.4 0.6 5-5.2 5.5-8.1 8.1-8 7.5-9.4 16.7-6.6 26.7 3.7 12.9 12.1 23.1 20.7 32.9 4.6 5.2 9.9 9.9 14.7 14.9 1.8 1.9 4.5 3.4 3.7 6.7q-163.7 0-327.5 0c-1.9-2.3-1.8-4.9-1.6-7.7 1.6-16.3 2.9-32.7 2.3-49.2-1-29.2-8.3-57.3-15.7-85.3 0 6.1 1.2 12 2.4 17.9 3.8 19.4 8.1 38.8 9.8 58.6 1.3 14.2 1.1 28.4 0.3 42.5-0.3 5-0.9 9.9-0.9 14.9 0 2.9 0.2 5.9-2 8.3q-134.6 0-269.2 0c-2.2-2.5-1.8-5.5-1.4-8.4 7.5-57.6 15.8-115.2 28.1-172.1 10.3-47.8 20.6-95.7 36.4-142.1 7.9-23 16.4-45.8 28.1-67.3 16.9-30.7 41.1-54.7 69.6-74.3 51-35 106.3-62.1 162.9-86.4 21.1-9.1 43.2-15.6 65.2-22.4 23.1-7.1 44.8-17.7 66.8-27.6 2.1-0.9 4.1-2 6.1-3 10.5-5.2 10.9-4.9 13.7 6.5 6.1 25 18.8 46.7 34.9 66.4 29.5 36.3 68.2 57.3 112.9 68.8 29.3 7.5 58.9 14.3 89.3 13.4 34.8-1 68.9-7.2 102.2-17.7 26.3-8.4 51.8-18.4 74.8-34.2 22.6-15.5 40.2-35.4 52.7-59.7 6.2-12 13.5-23.4 17.7-36.4 1.4-4.5 4.3-5.8 8.9-4.2 50.5 18 101.4 35 152 52.9 24.9 8.8 49.5 18.2 73.6 28.8 45.3 19.9 78.6 52.3 103.9 94.3 22.8 37.8 39.1 77.8 50.4 120.5 14.2 53.7 24.7 108.1 37.4 162.1 10.6 44.7 16.9 90.4 28.1 135 0.6 2.4 1.6 4.8-0.4 7.1q-130.5 0-261.1 0c-1.4-1.6-1.8-3.6-1.9-5.6-1.8-36.9-2.4-73.8-0.4-110.7 0.6-10.1 1.5-20.2 2.3-30.3 2.4-26.6 12.9-50.9 21.7-75.7-8.5 23.6-20 46.3-23 71.7-1.7 14.5-2.9 29-3.7 43.7-0.9 18-1 36-1.2 54-0.1 15.5 1.7 31 2 46.5 0 2.3 0.4 4.5-1.2 6.4z"/>
		<path id="Layer" class="s1" d="m1281.3 2000q-189.4 0-378.8 0c-13.9-8-23.6-20-32.8-32.6-5.6-7.7-10.7-15.6-12.5-25.3-1.9-10.9 2.6-20.2 12.6-25 8.5-4.2 8.9-5.5 1.9-12.2-7.8-7.6-14.5-16-19-26-2.2-5.1-3.5-10.2-3.5-15.7 0.2-11.6 5.9-18 17.5-19 4.1-0.4 8.1-0.3 12.2 0.1 1.5 0.1 3.5 0.7 4.2-1.1 0.8-2-1-3.3-2.4-4.3-4.6-3.4-9.4-6.3-14-9.5-11.9-7.9-18.9-19.1-22-32.9-1.3-5.7-0.8-11.2 1.2-16.6 2.3-6.2 6.7-10.3 13.3-11.2 7.8-1 15.7-1 23.3 2.2 8.1 3.4 15.9 7.5 23.8 11.2 1.6 0.7 3.8 2.3 4.9 0.4 1.3-2.4-1.5-3.3-3.1-4.3-11.6-6.7-24.2-11-36.6-15.9-34.8-13.7-69.6-27.4-103.3-43.8-12.1-6-25.4-9.2-37.5-15.4-9-4.7-17.4-10.4-25.4-16.6-6.1-4.7-10.2-10.9-12.9-17.9-6.1-15.7 5-28.6 22.7-26.8 11.6 1.3 22.1 5.9 32.7 10.4 20.2 8.3 40 17.7 59 28.5 10.4 5.8 21.6 10.3 33.1 13.6 26.3 7.4 51.9 16.9 78 24.9 12 3.6 24.4 6.4 36.6 9.4 20.7 5.1 40.4 12.9 59.9 21.1 4.1 2.1 8.4 3.8 12.6 5.6q0.5 0.2 0.5 0.2 0.5-0.1 0.4-0.3c-0.2-0.9 0.5 0-0.5 0-3.8-1.2-7.1-3.2-10.7-4.7-21.7-11.9-44.5-20.7-68.7-25.9-2.4-0.5-4.8-1.3-7.2-2-7.8-2.5-8.4-5-2.8-11.1 5.3-5.9 12.5-7.9 19.7-6.3 30.5 6.9 60 16.5 84.8 36.7 9.5 7.7 19.6 14.5 29.5 21.6 21.2 15.3 33.9 37 44.4 60.1 10.2 22.4 24.4 41.9 41.5 59.6 17.8 18.6 38 34.5 57.4 51.2 22 19.1 43 39.1 63.3 59.9 1.5 1.5 3.5 3 2.7 5.7z"/>
		<path id="Layer" class="s2" d="m1707.5 2000c-3.2-14.7-6.6-29.4-9.6-44.1-4.6-22.7-8.7-45.5-13.4-68.2-3.7-18-8.2-35.9-12.2-53.9-5-23.1-9.3-46.3-14.6-69.3-5.4-23-11.8-45.7-17.5-68.6-5.1-20.6-10.8-40.9-19.2-60.4-15.3-35.6-34.2-69-59.2-98.8-14.9-17.9-32.9-31.8-53.3-42.9-27.2-14.9-55.6-26.5-84.9-36.6-35.1-12.1-70-24.7-105.2-36.7-19.1-6.6-38.7-12-57.4-19.8-3.9-1.6-3.8-1.4-5.6 2.9-8.8 21.3-19.1 41.7-32.6 60.5-13.2 18.4-30.3 32.5-49.7 44.1-26.3 15.7-55.1 25.3-84.6 33.1-19.6 5.2-39.6 8.5-59.7 10.7-26.1 2.8-52.1 1.2-77.9-4.1-24-4.9-47.8-10.9-70.7-20-19.4-7.8-36.7-18.9-52.8-32.2-20.8-17.3-36.6-38.4-49-62.2-5.3-10.2-9.4-21-11.5-32.4-0.4-2.2-1-4.3-1.6-6.5-2.8-0.4-4.8 1.4-6.9 2.4-24.1 11.3-48 23-73.4 31.1-17.8 5.6-35.5 11.6-53.2 17.7-20.9 7.2-40.9 16.5-60.6 26.3-29.9 14.9-59.9 29.5-88.3 47.1-22.8 14.1-44.9 29.2-63.9 48.5-19.3 19.5-33.4 42.1-44.2 67.3-19.1 44.7-31.5 91.4-42.3 138.6-5.8 25.2-11.7 50.4-16.4 75.8-3.8 20.8-7.5 41.6-10.5 62.5-2.8 19.3-6.2 38.6-8.8 58-1.3 10-3.3 19.9-3.2 30.1q-3.4 0-6.8 0c2.5-30.3 6.3-60.5 11.1-90.5 5.8-36.3 11.6-72.5 20-108.3 9.4-40.6 18-81.3 31.2-120.9 5.9-18 13-35.5 20.3-53 15.1-35.8 38.9-64.6 69.7-88 26.3-19.9 54.7-36.6 84-51.6 30.9-15.7 61.6-32 94-44.4 21.9-8.4 44.4-15 66.6-22.2 29.4-9.6 57.3-22.8 84.7-36.9 14.1-7.3 26.5-17.2 37.7-28.5 5.1-5.1 8.4-11 9.7-18.1 4.2-22.1 8.6-44.2 11.9-66.5 0.9-6.5 0.1-12-3.3-17.9-11.4-19.9-21.8-40.4-28-62.8-5.5-20.2-9.4-40.8-10.7-61.7-0.2-2.2 0.2-4.6-1.1-6.6-26.9 1.9-42-18-44.6-38.3-1.6-12.8-2.4-25.6-5.2-38.2-2.1-9.7-5.1-19.1-7.6-28.7-4.1-15.2-5.5-30.6-2.1-46.1q0.5-2.3 1.2-4.6c4.6-14.1 12.2-19 26.9-17.1 1.1-1.6 0-2.9-0.4-4.3-7.6-26-18.6-50.7-28.5-75.8-5.8-14.7-11.7-29.3-14.6-44.9-1.8-9.8-2.8-19.7-1.7-29.6 1.3-12.4 6.5-23.3 14.4-33 5.3-6.4 11.3-12.3 17.6-17.7 18.1-15.5 32.1-34.1 42.1-55.7 13-28.3 32.5-51.8 55.1-72.9 18.8-17.5 41.2-25.8 66.9-26.3 17.5-0.4 35.2-0.3 52.2-5.7 5.8-1.8 11.6-3.6 17.4-5.3 14.2-4.1 28.5-4 42.8-0.5 14.3 3.4 27.8 8.9 40.8 15.8 13.2 7 27 12.1 41.8 14.9 19.4 3.5 34.7 14.4 47.9 28.5 3.1 3.3 5.4 7.2 7.2 11.4 1.1 2.7 2.4 5.4 3.4 8.1 2.4 6.6 7.3 10 14.1 11.1 4.4 0.8 8.9 1.4 13.3 2.3 15.1 2.9 28.5 9.6 40.6 19 13.3 10.5 21.5 24.2 24.4 40.8 3 16.4 6.3 32.7 10.7 48.8 4 14.5 3.6 29.5 3.5 44.4-0.2 24.1-3 48.1-7.6 71.8-3 15.2-9.3 29.1-16.7 42.6-1 1.9-2.6 3.7-2.9 6.3 1.2 0 2.2 0.2 3.3 0.2 6.4 0.2 10.6 3.5 12.7 9.4 2.2 6.5 2.7 13.2 2.1 20-1 12.9-3.5 25.4-6.9 37.8-4.5 16.6-6.4 33.6-7.6 50.7-0.7 10.6-1.1 21.2-3.8 31.5-2.5 9.3-7.3 17.1-15.3 22.4-7.8 5.1-16.1 6.8-24.9 1.5-0.7 0.2-1.1 1-1.3 1.9-5.2 28-15.7 54.4-26.2 80.8-5 12.3-10 24.6-15.9 36.5-2.3 4.6-2.8 9.2-2.4 14.3 1.1 13 1.5 26.1 2.2 39.2 0.5 9.9 0.8 19.8 2.3 29.6 1.1 7.7 4.5 14.1 10.1 19.3 4.3 4.1 9.2 7.3 14 10.7 37.1 26.2 77.5 45.8 120.9 58.9 36.7 11.1 72.1 25.6 108.5 37.4 29.4 9.5 58.1 20.6 86.2 33.5 40.2 18.5 71.1 46.8 94.9 83.8 26.8 41.7 46.7 86.2 58.1 134.5 6.1 25.8 14.5 51.1 19.5 77.2 8.3 44.1 19.8 87.4 28.5 131.4 5.7 29.4 11.1 58.9 16.6 88.3 0.4 2 0.9 4 0.4 6q-2.8 0-5.5 0z"/>
		<path id="Layer" class="s2" d="m1014.5 1751.2c-5.7-1.5-11-4-16.3-6.3-24.2-10.3-49.7-16.1-75-22.4-9.2-2.3-18.1-5.6-27-8.6-19.3-6.4-38.5-12.8-57.9-18.5-15.5-4.4-30-11.3-43.8-19.4-20.1-11.8-42-19.7-63.4-28.6-7.7-3.2-15.9-4.9-24.5-3.5-9.4 1.6-14.2 7.3-14 16.7 0.2 8.5 4.1 15.2 10 20.8 8.8 8.6 19 15.2 29.9 20.7 1 0.5 2 1 3.1 1.4 48.3 18.7 94.5 42.4 143.3 59.9 9.8 3.5 19.2 7.7 28.5 12.3 2.2 1.1 4.3 2.5 6.2 4 1.6 1.2 1.8 3.2 0.8 4.9-1.1 1.9-3 2-4.8 1.3-1.4-0.6-2.8-1.5-4.1-2.3-8.3-4.6-16.9-8.4-25.8-11.9-6.7-2.6-13.7-2.3-20.7-1.3-5.5 0.8-9.3 4.3-11.3 9.5-1.9 5-2.4 10-1.4 15.3 2.3 13.3 8.7 24 19.8 31.8 4.8 3.4 9.8 6.5 14.6 9.8 1.7 1.1 3.3 2.4 4.7 3.8 1.2 1.2 1.5 2.8 0.7 4.4-0.8 1.6-2.4 2.1-4 1.8-2.9-0.3-5.8-1-8.7-1.2-3.8-0.3-7.6-0.2-11.3 1.1-7.6 2.6-11.4 7.7-11.5 15.7 0 6 1.7 11.5 4.2 16.9 4.4 9.6 11 17.5 18.3 24.9 1.9 1.9 3.9 3.8 5.4 6 1.8 2.6 1.2 4.6-1.7 6-2 1-4.2 1.5-6.3 2.5-8.7 3.9-12.9 11.7-11.8 21.3 0.8 6.9 3.5 13 7.1 18.8 8.9 14.3 20.5 26.2 32.9 37.4 1.3 1.2 3.1 2 3.8 3.8q-3.4 0-6.8 0c-3.3-4.9-7.9-8.6-12.2-12.6-9-8.5-16.6-18.3-23.1-28.9-4.1-6.6-6.7-13.7-6.8-21.6-0.2-10 4.2-17.3 12.6-22.3 1.3-0.8 2.7-1.6 4.1-2.4 0.2-0.1 0.2-0.3 0.7-1-3.1-3.6-6.3-7.2-9.5-10.9-8.1-9.6-14.3-20.1-16.2-32.8-2.1-13.2 3.7-23 16.4-27 2.8-0.8 5.6-1.3 9-2.1-3.6-2.7-6.9-4.9-10.1-7.4-15.6-12.2-22.6-28.3-20.3-48 0.9-7.4 4.5-13.7 11.7-17.1 1.4-0.7 3-1 4-2.4-0.4-2.1-2.2-2.2-3.6-2.7-27.6-9.6-54.2-22-80.7-34.4-11.6-5.4-23.7-9.6-35.7-14.4-13.5-5.3-25.4-13.4-36.5-22.8-7.4-6.2-12.1-14.2-14-24-2.7-14.1 5.7-27.8 22.3-29.1 10.8-0.8 21 1.9 30.8 6 14.8 6.2 29.5 12.3 44.1 18.9 6.9 3.2 13.4 7.4 20.1 11.1 14.7 7.9 30 14.3 46.2 18.6 17.2 4.6 33.9 10.8 50.8 16.3 7.1 2.3 14 4.9 21.1 7.1 5.7 1.8 7 1.6 10.1-3.5 5.1-8.2 12.5-11 21.7-11.2 7.3-0.2 14.4 0.9 21.2 3.2 15.6 5.2 31.3 10.3 46 17.7 8.1 4 15.8 8.7 22.7 14.5 10.1 8.3 20.8 15.8 31.5 23.3 20 14 33.5 33.2 43.1 55.2 11 24.7 25.4 47 44.5 66.4 14.1 14.2 29.3 27.2 44.8 39.9 11.7 9.6 23.1 19.5 34.1 29.8 16.4 15.4 32.4 31.3 48.6 47 1.1 1.1 2.4 2 2.9 3.6q-5.4 0-10.8 0c-1.7-3.3-4.8-5.2-7.3-7.8-27.9-28.3-57-55.2-87.9-80.2-13.5-10.9-25.7-23.3-37.5-36.1-14.1-15.4-25.1-32.9-34-51.8q-5.2-11-10.9-21.7c-8.4-15.6-19.9-28.4-34.2-38.7-11.7-8.4-23.6-16.6-34.8-25.7-0.9-0.7-1.8-1.4-2.7-2-21.8-14.3-46.1-22.4-71.1-28.6-2.4-0.6-4.9-0.8-7.4-0.6-9.8 0.5-14.4 2.6-18.5 12.7 28.8 6.7 57.1 14.6 82.5 30.1 0.1 2.5-1.4 2.2-3 1.6z"/>
		<path id="Layer" class="s3" d="m1441 2000c-3.1-30.5-3.1-61.1-2.4-91.7 0.3-15.1 1.2-30.2 2.6-45.1 2.1-22.3 7.5-43.9 16.6-64.4 3.2-7.4 5.9-15.1 8.9-22.6 0.8-1.8 1.1-4 3.5-5.3 1.2 2.6 0.1 4.7-0.6 6.9-4.7 13.9-9.5 27.7-14.1 41.6-4.6 13.7-6.3 27.9-7.8 42.3-3.8 35.9-2.7 71.9-2.4 108 0.1 10.1 1.6 20.2 1.1 30.3q-2.7 0-5.4 0z"/>
		<path id="Layer" class="s4" d="m562.8 2000c-0.6-9.9 0.7-19.8 1.2-29.6 1.6-29-2.5-57.4-8.6-85.6-2-9.2-4.2-18.4-4.8-27.8-0.2-1.8-1.1-4.7 1.4-5.2 2.7-0.5 2.7 2.6 3.1 4.4 5.3 20.2 10.1 40.5 13.4 61.1 2.6 16.1 2.9 32.3 2.3 48.4-0.4 11.5-1.7 22.9-2.6 34.3q-2.7 0-5.4 0z"/>
		<path id="Layer" class="s5" d="m1014.5 1751.2c1.1-0.3 2.4-0.3 3-1.6 4.4 1.2 8.2 3.4 12.1 5.6 0.2 1.3-0.1 2.1-1.6 1.5-4.7-1.4-9.3-2.9-13.5-5.5z"/>
		<path id="Layer" class="s6" d="m1028 1756.7q0.8-0.7 1.6-1.5c1.1 0.4 3 1.1 2.2 2.2-0.9 1.4-2.6 0.3-3.8-0.7z"/>
		<path id="Layer" class="s1" d="m1196.2 1048.4c0.6 42-8.3 84.7-24.2 126.2-15 39.2-32 77.4-53.1 113.7-4.9 8.6-10.2 17-16 25.1-11.4 16-25.5 29.1-42.7 38.7-11.8 6.6-23 14.4-35.6 19.4-31.6 12.8-63.5 14.2-95.2 0.5-11.4-4.9-21-12.3-29.8-20.8-8.1-7.9-15.5-16.4-22.2-25.5-24.4-33.1-45.3-68.3-63.3-105.3-11.8-24.2-17.5-50.1-21.2-76.5-2.9-20.5-3.2-41.3-4.2-62-1.1-21.8-2.7-43.6-4.7-65.4-1.9-22-3.9-43.9-4.9-66-0.7-16-1.2-32 0.2-48 3.3-38.6 15.3-73.8 43.6-101.4 21.3-20.9 47.4-33.9 76.7-40.4 28.2-6.2 56.9-9.2 85.5-13.1 13.3-1.8 26.9-2.1 40.4-2.9 8.8-0.5 17.6 0.8 26.2 2.3 13.6 2.4 27.3 3.5 40.7 6.6 20.2 4.8 37.4 14.8 52.5 29.2 21.6 20.6 31.7 46.5 36.3 75.2 3 18.9 3.7 38.1 5.4 57.2 1.9 22 3.6 44 5.8 66 2.1 21.5 3.8 43 3.8 67.2z"/>
		<path id="Layer" class="s7" d="m779.4 1014.6c-3.6-3.1-2.5-6.4-3.4-9.1-2.7-8.4-5.2-16.8-7.6-25.2-5-17.3-9.7-34.6-15.4-51.6-6.9-20.5-15.5-40.3-23.4-60.4-6.6-16.5-13.3-33-15.8-50.7-2.6-18.4-0.8-35.9 11.5-51 5-6.1 10.6-11.5 16.5-16.8 15.5-14.1 29.8-29.2 39.6-48.2 5.5-10.8 10.7-21.9 17.1-32.2 6.5-10.6 14.4-20.1 22.4-29.5 5.3-6.4 10.9-12.6 17-18.2 13.2-12.4 28-21.8 46-25.5 5.7-1.1 11.5-1.6 17.3-2.1 18.1-1.6 36.4 0 54.1-5.3 6.7-2 13.4-3.8 20-6.1 14.2-4.8 28.3-4 42.4 0.1 10.8 3.2 21.4 6.9 31.3 12.3 16.5 9.1 33.8 15.9 52.3 19.2 11 2 20 8 28.6 14.6 6.3 4.8 12.3 9.8 16.6 16.6 2.8 4.5 4.4 9.4 6.3 14.2 3.3 8.1 9.7 11.4 17.6 13 5 1 10.2 1.6 15.2 2.8 15.3 3.8 29.1 10.9 40.6 21.7 8.6 8 15 18.3 16.9 30.1 3.5 20.6 9 40.7 12.8 61.2 2.5 13.6 3.9 27.6 1.3 41.5-0.4 2.2-0.2 4.5-0.2 6.8-0.1 15-2.6 29.9-4.9 44.7-1.2 7.8-2.5 15.5-4.9 23-5 14.8-12.2 28.6-20.7 41.6-6.8 10.6-13.4 21.3-19.4 32.4-3.6 6.6-7.1 13.6-5.9 21.7-1.6-3.2-2.4-6.3-2.4-9.7 0.1-9.3-1.7-18.3-2.4-27.5-0.5-6.7-1.3-13.4-1.9-20.1-0.5-7.5-0.8-15.2-2.2-22.7-1-5.7-0.8-11.6-1.3-17.4-0.8-11.9-1.8-23.7-3.1-35.5-2.7-23.7-7.8-46.7-21.4-66.8-13.7-20.3-31-36.7-53.9-46.4-9.8-4.2-20-6.7-30.5-8.3-14.4-2.2-28.7-4.6-43.2-6.4-6.4-0.8-13-0.4-19.5-0.4-7.5 0-14.9-0.4-22.2 1.3-6.1 1.4-12.4 0.6-18.6 1.1-14.1 1-27.9 3.6-41.7 6.9-14.8 3.5-29.8 6.3-44.7 9.6-17 3.9-32.5 11.6-47.5 20.4-9.1 5.4-17.7 11.7-25.2 19-6.7 6.5-12.8 13.9-17.9 21.9-10.7 16.6-18.3 34.5-22.8 53.7-3 12.7-5 25.5-4.9 38.6 0 13.5-0.6 27.1 0.2 40.6 0.6 9.8 0.8 19.7 2.2 29.5 0.9 6.4 1 12.9 1.5 19.4 0.3 4.2 1.1 8.4 1.6 13.6z"/>
		<path id="Layer" class="s1" d="m834.5 1271c13.8 23.3 27.8 46.4 45 67.4 7.7 9.4 16 18.4 25.5 26 22.1 17.8 47.4 24.7 75.6 23.6 24.4-1 46.4-8.2 66.9-21 5.9-3.6 12.1-7 18.1-10.5 16.3-9.3 29.8-21.8 40.9-36.9 13.9-19 24.5-39.9 35.5-60.6 1-1.9 2-3.9 4.1-5.9 0.4 4.8 0.8 9.5 1 14.2 0.6 14 1 27.9 1.7 41.9 0.2 4.5 0.7 9 1.4 13.4 1.3 7.8 4.9 14.5 10.7 19.9 2.8 2.6 5.7 5.2 8.8 7.4 24.1 16.7 48.5 32.9 75.7 44.3 5.4 2.2 5.6 2.4 3.3 7.7-8.5 19.6-17.8 39-30.3 56.4-16.5 23.1-38.7 39.6-63.9 52-31.3 15.5-64.6 25-98.9 31-19.1 3.4-38.4 5.4-57.8 5.1-22.7-0.3-44.8-4.3-66.7-9.6-19.3-4.7-38.5-10-56.5-18.4-47.9-22.6-81.3-58.8-99.8-108.5-1.8-4.8-2.6-10-4.1-15-0.9-2.6-0.2-4 2.2-5.4 6.9-3.9 13.4-8.3 19.7-13.1 6.9-5.4 13.5-11.3 19.4-17.8 4.5-4.9 7.7-10.6 9-17.1 4.5-22.1 8.8-44.2 11.3-66.6 1.6-0.8-1.2-4.1 2.2-3.9z"/>
		<path id="Layer" class="s1" d="m784.4 1104.7c0 1.4 0 2.8 0.2 4.1 1.2 6.2-1.3 8.4-8.4 7.1-11.1-2.1-20-7.9-25.3-18.3-2.8-5.6-4.6-11.4-5-17.5-1.5-23.3-6.7-45.8-13.3-68.1-3.7-12.9-4.8-26.1-2-39.5 0.9-4.4 2.2-8.7 4.7-12.5 2.8-4.1 6.5-6.9 11.7-7 6.4-0.3 9 1.4 10.6 7.6 5.4 21 12.3 41.5 19.3 61.9 3.1 9.1 4.2 18.2 4.8 27.6 1.1 18.2 1.9 36.4 2.8 54.6q-0.1 0-0.1 0z"/>
		<path id="Layer" class="s1" d="m1250.4 968.7c-0.1 11.6-1.9 22.1-4.9 32.2-6.9 23-9.8 46.7-11.5 70.5-0.5 6.8-1.1 13.5-3.1 20-3.3 10.9-9.5 19.5-21.5 22-5.3 1.1-8.3-0.5-10.6-4.9-0.8-1.8-0.8-3.4-0.5-5.3 4.3-27.2 4.6-54.6 3.7-82.2-0.4-11.3 3.1-22.7 7.9-33.2 5.5-12.1 12.6-23.3 19.9-34.4 2.7-4.1 6.4-5.5 11-5 4.7 0.5 6.8 3.7 8.2 7.9 1.4 4.3 1.4 8.8 1.4 12.4z"/>
		<path id="Layer" class="s8" d="m834.5 1271q-1.1 1.9-2.2 3.9c-0.1-1.5-0.2-3-0.2-4.5 0-0.6 0.2-1.4 1-1.3 0.9 0.2 1.4 1 1.4 1.9z"/>
	</g>
</svg>