<svg version="1.2" xmlns="http://www.w3.org/2000/svg" viewBox="0 0 500 500" width="500" height="500">
	<title>home-main-svg</title>
	<style>
		.s0 { fill: #3b364d } 
		.s1 { fill: #ffe5e2 } 
		.s2 { fill: #aab2c8 } 
		.s3 { fill: #e0e7ff } 
		.s4 { fill: none;stroke: #aab2c8;stroke-miterlimit:10 } 
		.s5 { opacity: .5;fill: #ffffff } 
		.s6 { fill: #773c4d } 
		.s7 { fill: #965363 } 
		.s8 { fill: #61648a } 
		.s9 { fill: #edf1fc } 
		.s10 { fill: #ffc55a } 
		.s11 { fill: #af2f48 } 
		.s12 { fill: #f49947 } 
		.s13 { fill: #f27c49 } 
		.s14 { fill: #d35473 } 
		.s15 { fill: #31344c } 
		.s16 { opacity: .5;fill: #232433 } 
		.s17 { fill: #383952 } 
		.s18 { fill: #6d3744 } 
		.s19 { fill: #542633 } 
		.s20 { opacity: .4;fill: #383952 } 
		.s21 { fill: #f4b8ab } 
		.s22 { fill: #c3c9f4 } 
		.s23 { fill: none;stroke: #191918;stroke-miterlimit:10;stroke-width: 2 } 
		.s24 { fill: none;stroke: #e56a85;stroke-linecap: round;stroke-miterlimit:10 } 
		.s25 { opacity: .5;fill: #dd6595 } 
		.s26 { fill: #7c9e1e } 
		.s27 { fill: #b7ac15 } 
		.s28 { fill: #a88f14 } 
		.s29 { fill: #426313 } 
		.s30 { opacity: .4;fill: #426313 } 
		.s31 { fill: #3a3852 } 
	</style>
	<g id="BACKGROUND">
	</g>
	<g id="OBJECTS">
		<g id="Layer">
			<path id="Layer" class="s0" d="m430.3 407.6h-6.6v-164.3h6.6z"/>
			<path id="Layer" class="s1" d="m182.8 421.6c0 2.4-20.9 4.3-46.7 4.3-25.7 0-46.6-1.9-46.6-4.3 0-2.4 20.9-4.3 46.6-4.3 25.8 0 46.7 1.9 46.7 4.3z"/>
			<path id="Layer" class="s1" d="m309 435.1c-50.1 0-90.6-4-90.6-8.9 0-4.9 40.5-8.9 90.6-8.9 50.1 0 90.6 4 90.6 8.9 0 4.9-40.5 8.9-90.6 8.9z"/>
			<g id="Layer">
				<path id="Layer" class="s2" d="m187.9 254.3h-126.4c-5.9 0-10.8-4.9-10.8-10.8v-109.6c0-5.9 4.9-10.8 10.8-10.8h126.4c5.9 0 10.8 4.9 10.8 10.8v109.6c0 5.9-4.9 10.8-10.8 10.8z"/>
				<path id="Layer" class="s3" d="m60.8 134h127.8v109.4h-127.8z"/>
				<path id="Layer" class="s4" d="m124.7 134v109.4"/>
				<path id="Layer" class="s4" d="m188.6 188.7h-127.8"/>
				<path id="Layer" class="s5" d="m116.7 134l-42.9 109.3h19l43.3-109.3z"/>
				<path id="Layer" class="s5" d="m149.9 134l-42.9 109.3h18.9l43.4-109.3z"/>
			</g>
			<path id="Layer" class="s6" d="m328.8 237.5h125.9v11.7h-125.9z"/>
			<path id="Layer" class="s7" d="m374.4 237.5h80.3v11.7h-80.3z"/>
			<g id="Layer">
				<path id="Layer" class="s8" d="m420.3 237.5h-64.2c-2.3 0-4.1-1.8-4.1-4.1v-10.7c0-2.3 1.8-4.1 4.1-4.1h64.2z"/>
				<path id="Layer" class="s9" d="m357 222.6h64.4v10.9h-64.4z"/>
				<path id="Layer" class="s3" d="m356.8 222.6h46v10.9h-46z"/>
				<path id="Layer" class="s10" d="m409.8 218.6h-64.3c-2.2 0-4-1.8-4-4v-10.8c0-2.2 1.8-4 4-4h64.3z"/>
				<path id="Layer" class="s9" d="m346.3 203.7h64.4v10.9h-64.4z"/>
				<path id="Layer" class="s3" d="m346.3 203.7h46.3v10.9h-46.3z"/>
				<path id="Layer" class="s11" d="m424.3 199.8h-64.2c-2.2 0-4.1-1.9-4.1-4.1v-10.8c0-2.2 1.9-4 4.1-4h64.2z"/>
				<path id="Layer" class="s9" d="m361.1 184.9h64.4v10.9h-64.4z"/>
				<path id="Layer" class="s3" d="m360.8 184.9h43.5v10.9h-43.5z"/>
			</g>
			<g id="Layer">
				<path id="Layer" class="s10" d="m352.8 334.6c0.1 14-1.2 27.4-4.9 39.4q0 0 0 0.1c-10.1 33.7-38.4 56.9-104.5 54.7-89.6-2.9-105.9-86.3-113.5-164.2-6.1-63.3 13-109.9 70-125.2 13.3-3.5 28.7-5.4 46.2-5.4 80.7 0 106.4 147.3 106.7 200.6z"/>
				<path id="Layer" class="s12" d="m347.9 374.1c-10.1 33.7-38.4 56.9-104.5 54.7-89.6-2.9-105.9-86.3-113.4-164.2-6.2-63.3 12.9-109.9 69.9-125.2-49 29.9-61.2 84.4-41.1 167.2 20 82.8 70.6 106.9 103.3 106.9 32.7 0.1 73.8-10.6 85.8-39.4z"/>
				<path id="Layer" class="s12" d="m223.4 212.2c-64 11.4-36.1 102.7-21.9 128.3 14.1 25.6 20.1 55.9 52.8 57.2 32.7 1.4 74.4-13.4 78.4-24.2 4.1-10.8-14.4-66.9-14.4-66.9 0 0-2.6-56.9-20.3-71.8-17.7-14.9-53.4-26.4-74.6-22.6z"/>
				<path id="Layer" class="s13" d="m309 366.3c-11.7 21.8-51.5 29.5-65.1 26-8.1-2-17.7-9.3-26.5-19.8-5.6-9.8-10-21.3-15.9-32-2.3-4-4.8-9.6-7.3-16.3-4.9-23.4-4.7-51.3 4.5-60.8 12.4-12.9 24.5-21.9 25.3-29.9 0.7-6.3-6.4-14.5-5-20.4q2.1-0.5 4.4-0.9c17.5-3.1 44.8 4.1 63.8 15.1 1.8 6.9 2 16.2 6.3 19.2 6.6 4.6 16.8 33.5 19.4 47 2.5 13.6-3.9 72.8-3.9 72.8z"/>
			</g>
			<g id="Layer">
				<path id="Layer" class="s11" d="m395.9 400.9c0.5 8.2 24.3-2.3 27.4-6.8 0 0-13 37.4-19.8 37.4-6.7 0-25.2-19.5-25.2-19.5l2.2-11.1z"/>
				<path id="Layer" class="s14" d="m403.5 431.5c-7.3 3.2 11.1-43.4 19.8-42.3 8.8 1-10.2 38.2-19.8 42.3z"/>
				<path id="Layer" class="s15" d="m398.7 347c-0.5 24.1-6.7 53.9-6.7 53.9h-15.4c0 0-9.5-20.3-13.9-40.7-1.1-5.1-1.9-10.3-2.2-15.1 0 0-23.8 7.2-46.9 2.9-9.6-1.8-20.5-4.9-29.9-7.8-13.3-4.1-23.6-8.1-23.6-8.1l0.7-1 16.9-21.3 45.3-6.8 5.3-0.8 32.2 10c28.6 3.1 38.7 10.8 38.2 34.8z"/>
				<path id="Layer" class="s16" d="m362.7 360.2c-1.1-5.1-1.9-10.3-2.2-15.1 0 0-23.8 7.2-46.9 2.9-9.6-1.8-20.5-4.9-29.9-7.8l-22.9-9.1-1.9-0.8-3.8-15.7 48.7-17.1 19.2 5.5 32.2 9.2c-7.7 14 7.9 30.5 11.4 35.5 3.4 5 13.2-3.1 19.4 0 6.2 3.1-18.4 1.6-23.3 12.5z"/>
				<path id="Layer" class="s11" d="m371.8 414.4c7.1 15.4 17.6 22.7 23.2 20.3l-2.5-25.6-10.1-4.4z"/>
				<path id="Layer" class="s14" d="m395 434.7c-12.5 2-10.2-22.1-9.5-33.8 0.7-11.7 10.5-10.7 11.6-1.6 1 9.1 6.2 34-2.1 35.4z"/>
				<path id="Layer" class="s17" d="m382.4 404.7l-10.6 9.7c-43.3-12.5-68.8-52-68.8-52-24.1 27.9-51 34.2-72.7 0 0 0 1.4-15.2 19-26.9 3.4-2.3 7.4-4.4 12.2-6.3 18.8-7.4 43.8-8.9 59.2-8.9 9.3-0.1 18 4.4 23.3 12 9.1 12.8 17.7 28.7 24.5 42.4 8.4 16.7 13.9 30 13.9 30z"/>
				<path id="Layer" class="s16" d="m382.4 404.7l-10.6 9.7c-43.3-12.5-68.8-52-68.8-52-24.1 27.9-51 34.2-72.7 0 0 0 1.4-15.2 19-26.9l18.1-3.3c-21.2 41.6 29.8 31.9 38.9 24.3 9.2-7.6 17.9-15.2 22-15.6 4.1-0.4-17.5 15.5-2.3 33.8 15.3 18.2 50.5 29.5 42.5 0 8.4 16.7 13.9 30 13.9 30z"/>
				<path id="Layer" class="s18" d="m276.8 197.6h-0.6c0 0-6.4 24.6-17.3 33.7-2 1.7-4.1 2.8-6.4 3.2-14.7 2.8-27.6-14.1-30-25.6-1.4-6.4 1-10.4 3.4-12.6 1.8-1.8 3.7-2.5 3.7-2.5 0 0 1-18.2 7.3-17.8 6.1 0.3 5.1 2.7 5 2.9 0.4-0.6 13.7-18.2 22.8-16.3 9.2 2 2.7 15.6 2.7 15.6 0 0 11.7-11.8 15.6-5 3.9 6.8-7.6 15.1-7.6 15.1 0 0 9.9-0.2 10.9 3.4 0.9 3.6-0.5 7-9.5 5.9z"/>
				<path id="Layer" class="s19" d="m258.9 231.3c-2 1.7-4.1 2.8-6.4 3.2-14.7 2.8-27.6-14.1-30-25.6-1.4-6.4 1-10.4 3.4-12.6 2.2 2.8 5.1 8.6 11.8 1.3h3.1z"/>
				<path id="Layer" class="s8" d="m298 304.3l-67.3 62.5q-4.9-4.4-8.6-9.2c-4.6-5.9-7.9-12.2-10.2-18.8-1.8-5-3-10-3.8-15.2-1.9-11.9-1.6-24.2-0.9-36.5 1.8-28.8 10.5-48 45-48.5 0 0 15.9-4.4 27.6 1.9 9.2 4.9 15.2 41.6 17.4 57 0.5 4.2 0.8 6.8 0.8 6.8z"/>
				<path id="Layer" class="s20" d="m283.7 275.9c-35.5 13.3-50.2-12.5-50.2-12.5l-11.4 41.2 24.5 7.6 42.7-4.5z"/>
				<path id="Layer" class="s20" d="m298 304.3l-67.3 62.5q-4.9-4.4-8.6-9.2c11.7-0.9 36.9-28.9 30.3-30.4-6-1.3-26.3 12.6-40.5 11.6-1.8-5-3-10-3.8-15.2l21.6-19 67.5-7.1c0.5 4.2 0.8 6.8 0.8 6.8z"/>
				<path id="Layer" class="s21" d="m260.1 296c7.9-5.3 17.1-0.8 20.4 1.5 3.2 2.4 0 8.7 0 8.7 0 0-3.6-2.1-4.8-2.4-1.2-0.3-6.9 4.1-18.3 2.4-11.4-1.8 2.7-10.2 2.7-10.2z"/>
				<path id="Layer" class="s8" d="m213.8 258.7c15.5-11.5 24.3-1.4 23.6 18.6-0.8 20-0.8 20-0.8 20 0 0 19.8-6.3 24.7-6.3 0 0 0.4 13.7 0 18.6 0 0-24 23.2-39.8 24.9-15.7 1.8-12.6-29.5-14-43.8-1.4-14.4 0.9-28 6.3-32z"/>
				<g id="Layer">
					<path id="Layer" class="s22" d="m277.7 307.1l11.8-47.7c1.2-4.9 5.6-8.3 10.6-8.3h67.5c4.5 0 7.7 4.2 6.6 8.5l-13.6 49.9z"/>
					<path id="Layer" class="s3" d="m282.5 307.1l11.7-47.7c1.2-4.9 5.6-8.3 10.6-8.3h67.5c4.5 0 7.7 4.2 6.6 8.5l-13.6 49.9z"/>
					<path id="Layer" class="s22" d="m345.8 311.8h-86c-1.3 0-2.3-1-2.3-2.3 0-1.4 1-2.4 2.3-2.4h86c1.3 0 2.4 1 2.4 2.4 0 1.3-1.1 2.3-2.4 2.3z"/>
					<path id="Layer" class="s3" d="m366 311.8h-85.9c-1.3 0-2.4-1-2.4-2.3 0-1.4 1.1-2.4 2.4-2.4h85.9c1.4 0 2.4 1 2.4 2.4 0 1.3-1 2.3-2.4 2.3z"/>
					<path id="Layer" class="s22" d="m337.3 280.1c-1.1 6.2-3.9 10.9-6.3 10.5-2.3-0.4-3.3-5.8-2.1-12 1.1-6.2 3.9-10.9 6.2-10.4 2.4 0.4 3.3 5.7 2.2 11.9z"/>
				</g>
				<path id="Layer" class="s21" d="m280.7 201.6c1.5 22-2 31.7-14.5 32.9v5.1c0 3.8-3 6.9-6.8 6.9-3.8 0-6.9-3.1-6.9-6.9v-5.1c0 0-10-4.2-12-10.4-2-6.3 0-1 0-1l-0.9-25.5h41.4z"/>
				<path id="Layer" class="s21" d="m241.2 213.5c-3.2-5.7-6.9-3.3-7.6 0-0.7 3.3 5.9 11.4 7.6 8.6 1.6-2.9 0-8.6 0-8.6z"/>
				<path id="Layer" class="s18" d="m234.3 194.8c6.7 8.1 25.6 12.3 32.5 10.4 6.8-2-2.9-8.3-2.9-8.3 0 0 12.7 8.8 18.5 5.8 5.8-2.9-9.9-10-9.9-10z"/>
				<path id="Layer" fill-rule="evenodd" class="s23" d="m257 212.2c0 1.1-0.2 2.1-0.5 2.1-0.3 0-0.5-1-0.5-2.1 0-1.2 0.2-2.2 0.5-2.2 0.3 0 0.5 1 0.5 2.2z"/>
				<path id="Layer" fill-rule="evenodd" class="s23" d="m270.5 212.2c0 1.1-0.3 2.1-0.5 2.1-0.3 0-0.5-1-0.5-2.1 0-1.2 0.2-2.2 0.5-2.2 0.2 0 0.5 1 0.5 2.2z"/>
				<path id="Layer" fill-rule="evenodd" class="s24" d="m265 224c-6.4 0.2-11.4-4.5-11.4-4.5"/>
				<path id="Layer" class="s25" d="m266.2 234.5c-5.5 0.5-11.9 0.3-11.9 0.3l11.9 4.8z"/>
				<path id="Layer" class="s25" d="m240.8 215c-2.8-2.9-4.1-1.7-4 1.3 0.2 3.1 3.9 5.3 5.1 4.4 1.2-0.9-1.1-5.7-1.1-5.7z"/>
			</g>
			<g id="Layer">
				<g id="Layer">
					<path id="Layer" class="s26" d="m131.4 367.9c-12.4-4.5-19.2-2.8-23-7.8 0 0 10.1-1.8 15.7 0z"/>
					<path id="Layer" class="s27" d="m124.1 360.1c-15.1-7.9-19.6-16.8-23.4-23-3.8-6.2-6-11.3-7.5-11.7-1.4-0.5 6.2 1 13.5 8.3 7.2 7.2 10.2 8.3 15.9 14 5.8 5.8 10.9 14.2 11.5 20.2h-2.7z"/>
					<path id="Layer" class="s26" d="m128.4 357.9c-8.2-12.5-0.9-19.6-10.7-33.8-11.5-16.6-7.8-33.2-6.1-43.7 0 0-2.6 12.2 7.4 24 10 11.8 19.8 16.4 20.7 34 0.8 17.6-2.6 29.5-2.6 29.5h-5.7z"/>
					<path id="Layer" class="s27" d="m135.8 367.9c-2.7-11.7 2.6-31.7 3-51.5 0.4-19.8-10.6-34.5 5.8-53 0 0-3.4 3.4 1.2 17 4.7 13.7 15.2 27.9 10.1 46.2-5.2 18.4-16.2 33.4-16.1 41.3z"/>
					<path id="Layer" class="s28" d="m139.8 367.9c-1.7-14 12.6-35.9 24.8-40.8 0 0 1.3 10.7-6.6 19.5-7.9 8.8-13.8 21.3-13.8 21.3 0 0-4.4 0-4.4 0z"/>
					<path id="Layer" class="s29" d="m144.2 367.9c0.6-9.3 8.7-12.6 17-15 0 0-10 10.1-11.7 15z"/>
					<path id="Layer" class="s30" d="m148.1 369c1.5-7.1 4.6-9.3 4.1-9.7-0.6-0.4-4.3 5.5-6.1 8.6 0 0-2.4-8 1.2-15 3.7-7 7.1-12.2 7.1-12.2 0 0-11.7 13.5-12.3 20.4 0 0-1.2-6.9 0.8-15.8 2-8.9 7.3-17.3 5.3-27.9-1.9-10.5-4-21.7-4-21.7 0 0 0.9 10.7 1.9 20 1 9.2-1.7 14.1-4.4 24-2.7 9.9-1.2 24-2.3 23.9-1.2-0.1-3 2.6-3 2.6 0 0-1.2-15.2-3-28.1-1.8-13-1.6-14.7-9.5-22.4-7.9-7.8-8.9-12.5-8.9-12.5 0 0 5.3 10.6 9.7 17.5 4.4 6.9 5.9 9.9 5.9 22 0 12.1 0.6 19 1.6 20.9 1 2-7.5-11.5-14.2-16.1-6.6-4.6-12.1-10.8-12.7-11.9-0.6-1 6.5 11.8 11.7 15.2 5.3 3.4 14.4 15.2 14.4 15.2l-15-4.1 17 7.1c0 0 14.7 0 14.7 0z"/>
				</g>
				<path id="Layer" class="s31" d="m161.5 371.7l-8 46q-0.1 0.9-0.5 1.6c-0.8 1.4-2.3 2.3-4 2.3h-28.8c-2.3 0-4.2-1.7-4.6-3.9l-7.5-46c-0.4-2.9 1.8-5.4 4.6-5.4h44.2c2.9 0 5.1 2.6 4.6 5.4z"/>
				<path id="Layer" class="s16" d="m153 419.3c-0.8 1.4-2.3 2.3-4 2.3h-28.8c-2.3 0-4.2-1.7-4.6-3.9l-7.5-46c-0.4-2.9 1.8-5.4 4.6-5.4h15.2c-14.1 21.9 9.4 47.3 25.1 53z"/>
			</g>
			<path id="Layer" class="s10" d="m201.5 340.5c5.9 10.7 10.3 22.2 15.9 32-6.1-7.3-11.8-16.2-16.2-25.9-2.9-6.2-5.2-14-7-22.4 2.5 6.7 5 12.3 7.3 16.3z"/>
		</g>
	</g>
</svg>